# xmcd
# 
# Track frame offsets:
#     150
#     15513
#     32044
#     46596
#     64448
#     80561
#     95711
#     110497
#     129467
#     145338
#     161404
#     176157
#     196384
# 
# Disc length: 2825
# 
# Revision: 4
# Processed by: cddbd v1.5.2PL0 Copyright (c) Steve Scherf et al.
# Submitted via: fre:ac v1.0.31
# 
DISCID=b10b070d
DTITLE=Darius Rucker - Southern Style
DYEAR=2015
DGENRE=Country
TTITLE0=Homegrown Honey
TTITLE1=Good For A Good Time
TTITLE2=Baby I'm Right (featuring Mallary Hope)
TTITLE3=Southern Style
TTITLE4=High On Life
TTITLE5=Perfect
TTITLE6=You, Me And My Guitar
TTITLE7=Low Country
TTITLE8=Need You More
TTITLE9=Half Full Dixie Cup
TTITLE10=Lighter Up
TTITLE11=You Can Have Charleston
TTITLE12=So I Sang
EXTD=YEAR: 2015
EXTT0=
EXTT1=
EXTT2=
EXTT3=
EXTT4=
EXTT5=
EXTT6=
EXTT7=
EXTT8=
EXTT9=
EXTT10=
EXTT11=
EXTT12=
PLAYORDER=
